<svg viewBox="10 10 80 80">
    <path fill="#FFF" d="M87,50c-0.3-6.6-3.8-9.6-3.8-9.6c-0.6-0.5-2.4-2-5-2.1c-1.9-0.1-3,0.7-7.3,3.3c-7,4.2-8.9,4.9-10.6,4.8c-0.9,0-2.9,0-3.9-1.4c-1.1-1.5-0.3-3.8-0.1-4.3c0.8-2.2,2.2-2.7,8.9-7.5c0,0,5-3.7,5.9-7c0-0.1,0.1-0.2,0.1-0.3c0.4-2.5-0.5-4.5-0.9-5.2c-1.8-3.8-5.6-5.2-7.8-6c0,0-0.9-0.3-2.7-0.7c-1.7-0.4-4.3-0.7-7.4-0.8c0,0-1.5,0-2.5,0c-20.5,0-37.1,16.5-37.1,36.9C12.8,70.5,29.4,87,49.9,87C75,86.9,87.5,59.7,87,50z M18.4,46.4c0-2.9,2.3-5.2,5.2-5.2s5.2,2.3,5.2,5.2s-2.3,5.2-5.2,5.2S18.4,49.3,18.4,46.4z M26.7,66.5c-2.9,0-5.2-2.3-5.2-5.2s2.3-5.2,5.2-5.2s5.2,2.3,5.2,5.2S29.6,66.5,26.7,66.5z M38.1,77.9c-2.9,0-5.2-2.3-5.2-5.2s2.3-5.2,5.2-5.2s5.2,2.3,5.2,5.2S41,77.9,38.1,77.9z M44.2,24c0-2.8,2.3-5.1,5.2-5.1c2.8,0,5.2,2.3,5.2,5.1s-2.3,5.1-5.2,5.1C46.5,29.1,44.2,26.8,44.2,24z M53.9,80.4c-2.9,0-5.2-2.3-5.2-5.2S51,70,53.9,70s5.2,2.3,5.2,5.2S56.8,80.4,53.9,80.4z M68.5,72.4c-2.9,0-5.2-2.3-5.2-5.2s2.3-5.2,5.2-5.2s5.2,2.3,5.2,5.2S71.4,72.4,68.5,72.4z"/>
</svg>
