<?xml version="1.0" encoding="UTF-8" standalone="no"?>
<svg
   viewBox="0 0 127.14 127.14"
   version="1.1"
   id="svg1"
   sodipodi:docname="discord.svg"
   width="127.14"
   height="127.14"
   inkscape:export-filename="discord.png"
   inkscape:export-xdpi="96"
   inkscape:export-ydpi="96"
   xmlns:inkscape="http://www.inkscape.org/namespaces/inkscape"
   xmlns:sodipodi="http://sodipodi.sourceforge.net/DTD/sodipodi-0.dtd"
   xmlns="http://www.w3.org/2000/svg"
   xmlns:svg="http://www.w3.org/2000/svg">
  <defs
     id="defs1" />
  <sodipodi:namedview
     id="namedview1"
     pagecolor="#505050"
     bordercolor="#eeeeee"
     borderopacity="1"
     inkscape:showpageshadow="0"
     inkscape:pageopacity="0"
     inkscape:pagecheckerboard="0"
     inkscape:deskcolor="#505050">
    <inkscape:page
       x="0"
       y="0"
       width="127.14"
       height="127.14"
       id="page2"
       margin="0"
       bleed="0" />
  </sodipodi:namedview>
  <path
     d="M 107.7,23.46 A 105.15,105.15 0 0 0 81.47,15.39 72.06,72.06 0 0 0 78.11,22.22 97.68,97.68 0 0 0 49,22.22 72.37,72.37 0 0 0 45.64,15.39 105.89,105.89 0 0 0 19.39,23.48 C 2.79,48.04 -1.71,71.99 0.54,95.6 v 0 a 105.73,105.73 0 0 0 32.17,16.15 77.7,77.7 0 0 0 6.89,-11.11 68.42,68.42 0 0 1 -10.85,-5.18 c 0.91,-0.66 1.8,-1.34 2.66,-2 a 75.57,75.57 0 0 0 64.32,0 c 0.87,0.71 1.76,1.39 2.66,2 a 68.68,68.68 0 0 1 -10.87,5.19 77,77 0 0 0 6.89,11.1 105.25,105.25 0 0 0 32.19,-16.14 v 0 C 129.24,68.23 122.09,44.5 107.7,23.46 Z M 42.45,81.08 C 36.18,81.08 31,75.39 31,68.39 c 0,-7 5,-12.74 11.43,-12.74 6.43,0 11.57,5.74 11.46,12.74 -0.11,7 -5.05,12.69 -11.44,12.69 z m 42.24,0 c -6.28,0 -11.44,-5.69 -11.44,-12.69 0,-7 5,-12.74 11.44,-12.74 6.44,0 11.54,5.74 11.43,12.74 -0.11,7 -5.04,12.69 -11.43,12.69 z"
     fill="#ffffff"
     id="path1" />
</svg>
