<svg viewBox="0 0 100 100">
    <path style="fill:none;stroke:#FFFFFF;stroke-width:6;stroke-miterlimit:20;" d="M20.8,82.7L20.8,82.7c-3.4-3-3.7-8.3-0.7-11.7l47-52.9c3-3.4,8.3-3.7,11.7-0.7l0,0c3.4,3,3.7,8.3,0.7,11.7l-47,53C29.5,85.5,24.2,85.8,20.8,82.7z"/>
    <path style="fill:none;stroke:#FFFFFF;stroke-width:6;stroke-miterlimit:20;" d="M48,29.7L48,29.7c0.8-0.9,2.2-1,3.2-0.2l18.9,16.8c0.9,0.8,1,2.2,0.2,3.2l0,0c-0.8,0.9-2.2,1-3.2,0.2l-19-16.8C47.2,32.1,47.1,30.6,48,29.7z"/>
    <path style="fill:white" d="M57.8,41.1L57.8,41.1c-3.7-3.3-4-9-0.7-12.7l9.1-10.3c3.3-3.7,9-4,12.7-0.7l0,0c3.7,3.3,4,9,0.7,12.7l-9.2,10.4C67.2,44.1,61.5,44.4,57.8,41.1z"/>
    <path style="fill:white" d="M47.3,30.9l1.6-1.8c0.2-0.3,0.6-0.3,0.9-0.1l21.4,19.1c0.3,0.2,0.3,0.6,0.1,0.9l-1.6,1.8c-0.2,0.3-0.6,0.3-0.9,0.1L47.3,31.8C47.1,31.5,47,31.1,47.3,30.9z"/>
</svg>
