<svg style="width: 100%; height: 100%" viewBox="10 10 80 80" fill="#FFF" xmlns="http://www.w3.org/2000/svg">
    <path d="M49.9,68.4l-0.2-0.2c-0.4-1-1.1-2.7-2.8-4.3c-2.4-2.3-5-2.8-6.1-3c-1.1,0-2.1-0.1-3.2-0.1 c5.3-7.7,10.5-15.4,15.8-23.1c5.2-7.6,10.5-15.3,15.7-22.9l0,0c1.1-1.4,2.8-2,4.5-1.5c0.3,0.1,1.6,0.4,2.5,1.5 c1,1.2,1.2,2.8,0.5,4.2C67.7,35.5,58.8,51.9,49.9,68.4z M30.7,67.4c-0.5,0.8-0.8,1.4-0.9,1.5c-0.7,1.7-0.6,3.1-2.3,6.8 c-2.6,5.9-5.1,7-4.5,8.8c1.1,2.8,8.6,2.7,13.4,1.5c2.7-0.6,6.6-1.6,9.6-5.2c0.5-0.6,5.1-6.4,2.6-12.4c-1.4-3.2-4.1-4.8-5.4-5.4 c-0.8-0.4-4.7-2.2-8-0.5C33.1,63.6,31.8,65.7,30.7,67.4z"/>
</svg>
