<svg viewBox="10 10 80 80" xml:space="preserve">
    <polygon style="fill:#FFFFFF" points="34.8,24 15.8,34.9 34.8,45.8 53.7,34.9"/>
    <polygon style="fill:#EDEDED" points="53.7,34.9 53.7,56.7 34.8,67.7 15.8,56.7 15.8,34.9 15.8,34.9 34.8,24"/>
    <polygon style="fill:#E2E2E2" points="34.8,45.8 15.8,34.8 15.8,56.7 34.8,67.6"/>
    <polygon style="fill:#FFFFFF" points="65.2,32.3 46.3,43.3 65.2,54.1 84.2,43.3"/>
    <polygon style="fill:#EDEDED" points="84.2,43.3 84.2,65.1 65.2,76 46.3,65.1 46.3,43.3 46.3,43.3 65.2,32.3"/>
    <polygon style="fill:#E2E2E2" points="65.2,54.1 46.3,43.2 46.3,65.1 65.2,75.9"/>     
</svg> 