<svg viewBox="10 10 80 80">
    <polygon fill="#FFF" points="31.7,44.8 13.5,55.4 31.7,65.9 50,55.4"/>
    <polygon fill="#EDEDED" points="50,55.4 50,76.4 31.7,87 13.5,76.4 13.5,55.4 13.5,55.4 31.7,44.8"/>
    <polygon fill="#E2E2E2" points="31.7,65.9 13.5,55.3 13.5,76.4 31.7,86.9"/>
    <polygon fill="#FFF" points="68.3,44.8 50,55.4 68.3,65.8 86.5,55.4"/>
    <polygon fill="#EDEDED" points="86.5,55.4 86.5,76.4 68.3,87 50,76.4 50,55.4 50,55.4 68.3,44.8"/>
    <polygon fill="#E2E2E2" points="68.3,65.8 50,55.3 50,76.4 68.3,86.9"/>
    <polygon fill="#FFF" points="50,34.3 31.7,44.9 50,55.3 68.2,44.9"/>
    <g style="opacity:0.7;"><polygon fill="#FFF" points="50.2,13 31.9,23.6 50.2,34 68.4,23.6"/>
        <polygon fill="#EDEDED" points="68.4,23.7 68.4,44.7 50.2,55.3 31.9,44.7 31.9,23.7 31.9,23.7 50.2,13.1"/>
        <polygon fill="#E2E2E2" points="50.2,34.2 31.9,23.6 31.9,44.7 50.2,55.2"/>
    </g>
</svg>
